<svg width="52" height="60" xmlns="http://www.w3.org/2000/svg">
 <title/>
 <desc/>

 <g>
  <title>background</title>
  <rect fill="none" id="canvas_background" height="402" width="582" y="-1" x="-1"/>
 </g>
 <g>
  <title fill="#a07c2e">Layer 1</title>
  <path fill="#a07c2e" id="bag" d="m40,20.9844c0,1.302 -0.838,2.401 -2,2.816l0,4.184c0,6.617 -5.383,12 -12,12c-6.617,0 -12,-5.383 -12,-12l0,-4.185c-1.162,-0.414 -2,-1.513 -2,-2.815c0,-1.654 1.346,-3 3,-3c1.654,0 3,1.346 3,3c0,1.302 -0.838,2.401 -2,2.816l0,4.184c0,5.514 4.486,10 10,10c5.514,0 10,-4.486 10,-10l0,-4.185c-1.162,-0.414 -2,-1.513 -2,-2.815c0,-1.654 1.346,-3 3,-3c1.654,0 3,1.346 3,3m4.291,-13.295l4.266,4.295l-45.143,0l4.293,-4.293c0.188,-0.187 0.293,-0.442 0.293,-0.707c0,-0.266 -0.106,-0.521 -0.294,-0.708l-4.288,-4.276l45.164,0l-4.288,4.276c-0.391,0.389 -0.392,1.021 -0.003,1.413m2.709,50.311l-42,0c-1.654,0 -3,-1.353 -3,-3.016l0,-41l48,0l0,41c0,1.663 -1.346,3.016 -3,3.016m4,-49.016c0.552,0 1,-0.448 1,-1l0,-6.984c0,-0.405 -0.243,-0.769 -0.617,-0.924c-0.122,-0.051 -0.251,-0.067 -0.378,-0.067c-0.016,-0.001 -0.03,-0.009 -0.046,-0.009l-49.959,0c-0.014,0 -0.025,0.007 -0.039,0.007c-0.116,0.005 -0.232,0.023 -0.344,0.069c-0.001,0 -0.002,0.001 -0.003,0.002c-0.007,0.003 -0.012,0.008 -0.019,0.011c-0.102,0.045 -0.191,0.108 -0.271,0.182c-0.025,0.024 -0.045,0.05 -0.068,0.075c-0.056,0.065 -0.103,0.134 -0.141,0.21c-0.015,0.032 -0.032,0.061 -0.045,0.094c-0.041,0.111 -0.07,0.227 -0.07,0.35l0,6.984c0,0.552 0.448,1 1,1c0.552,0 1,-0.448 1,-1l0,-4.575l3.585,3.576l-5.292,5.291c-0.091,0.092 -0.165,0.202 -0.215,0.323c-0.051,0.121 -0.078,0.251 -0.078,0.385l0,42c0,2.766 2.243,5.016 5,5.016l42,0c2.757,0 5,-2.25 5,-5.016l0,-41.958c0,-0.265 -0.104,-0.518 -0.291,-0.705l-0.042,-0.043l-0.002,-0.002l-5.252,-5.289l3.587,-3.578l0,4.575c0,0.552 0.448,1 1,1"/>
 </g>
</svg>