<svg width="100" height="100" xmlns="http://www.w3.org/2000/svg">

 <g>
  <title>background</title>
  <rect fill="none" id="canvas_background" height="402" width="582" y="-1" x="-1"/>
 </g>
 <g>
  <title fill="#a07c2e">Layer 1</title>
  <path fill="#a07c2e" id="svg_5" d="m95.4,50.3c0,-0.1 0.1,-0.3 0.1,-0.4c0,-4.3 -4.5,-6.5 -8.4,-8.4c-2.8,-1.4 -5.8,-2.9 -6.6,-4.7c-0.8,-1.9 0.3,-5 1.4,-7.9c1.5,-4.1 3,-8.3 0.2,-11.1c-2.8,-2.8 -6.8,-1.8 -10.8,-0.9c-2.8,0.6 -5.7,1.3 -7.6,0.5c-1.9,-0.8 -3.5,-3.3 -5,-5.7c-2.2,-3.4 -4.6,-7.3 -8.8,-7.3c-4.2,0 -6.6,3.9 -8.7,7.4c-1.5,2.5 -3,5 -4.9,5.8c-1.9,0.8 -4.9,0.1 -7.7,-0.6c-4,-1 -8.1,-2 -10.8,0.7c-2.8,2.8 -1.4,7 -0.1,11.1c1,3 1.9,6 1.1,8c-0.8,1.9 -3.6,3.3 -6.3,4.7c-3.8,2 -8.1,4.2 -8.1,8.4c0,0.1 0,0.3 0.1,0.4c0,0.1 -0.1,0.3 -0.1,0.4c0,4.2 4.3,6.5 8.1,8.4c2.7,1.4 5.5,2.8 6.3,4.7c0.8,1.9 -0.2,5 -1.1,8c-1.3,4.1 -2.7,8.3 0.1,11.1c2.8,2.8 6.9,1.7 10.8,0.7c2.8,-0.7 5.8,-1.4 7.7,-0.6c1.9,0.8 3.4,3.3 4.9,5.8c2.1,3.5 4.5,7.4 8.7,7.4c4.2,0 6.7,-3.9 8.8,-7.3c1.5,-2.4 3.1,-4.9 5,-5.7c2,-0.8 4.8,-0.2 7.6,0.5c3.9,0.9 8,1.9 10.8,-0.9c2.8,-2.8 1.3,-7 -0.2,-11.1c-1.1,-3 -2.2,-6 -1.4,-7.9c0.8,-1.9 3.7,-3.3 6.6,-4.7c3.9,-2 8.4,-4.2 8.4,-8.4c0,-0.2 -0.1,-0.3 -0.1,-0.4zm-9.7,6.1c-3.3,1.7 -6.8,3.4 -8,6.3c-1.3,3 0.1,6.6 1.3,10.1c1.2,3.3 2.4,6.5 0.9,7.9c-1.6,1.6 -4.7,0.9 -8,0.1c-3.3,-0.8 -6.6,-1.5 -9.5,-0.3c-2.8,1.2 -4.6,4 -6.3,6.8c-1.9,3 -3.7,5.9 -6.3,5.9c-2.5,0 -4.3,-2.9 -6.2,-6c-1.7,-2.9 -3.5,-5.8 -6.3,-7c-2.9,-1.2 -6.3,-0.4 -9.6,0.5c-3.3,0.8 -6.4,1.6 -8,0.1c-1.5,-1.5 -0.5,-4.7 0.6,-8c1.1,-3.5 2.3,-7.1 1,-10c-1.2,-2.9 -4.5,-4.6 -7.7,-6.2c-3.3,-1.7 -6.4,-3.3 -6.4,-5.8c0,-0.1 0,-0.3 -0.1,-0.4c0,-0.1 0.1,-0.3 0.1,-0.4c0,-2.4 3.1,-4 6.4,-5.8c3.2,-1.6 6.5,-3.3 7.7,-6.2c1.2,-3 0.1,-6.6 -1,-10c-1.1,-3.4 -2.1,-6.6 -0.6,-8c1.6,-1.6 4.7,-0.8 8,0.1c3.3,0.8 6.7,1.7 9.6,0.5c2.8,-1.2 4.6,-4.1 6.3,-7c1.9,-3.1 3.6,-6 6.2,-6c2.6,0 4.4,2.9 6.3,5.9c1.8,2.8 3.6,5.6 6.3,6.8c2.9,1.2 6.2,0.4 9.5,-0.3c3.3,-0.8 6.4,-1.5 8,0.1c1.5,1.4 0.3,4.6 -0.9,7.9c-1.3,3.5 -2.6,7.1 -1.3,10.1c1.2,2.9 4.7,4.6 8,6.3c3.5,1.7 6.7,3.4 6.7,5.8c0,0.1 0,0.3 0.1,0.4c0,0.1 -0.1,0.3 -0.1,0.4c0.1,2 -3.2,3.7 -6.7,5.4z"/>
  <text font-weight="bold" xml:space="preserve" text-anchor="start" font-family="Arvo, sans-serif" font-size="15" id="svg_6" y="39.49985" x="30.526323" stroke-width="0" fill="#a07c2e">fresh</text>
  <text font-weight="bold" xml:space="preserve" text-anchor="start" font-family="Arvo, sans-serif" font-size="15" id="svg_7" y="51.07375" x="22.717422" stroke-width="0" fill="#a07c2e">baked</text>
  <text font-weight="bold" xml:space="preserve" text-anchor="start" font-family="Arvo, sans-serif" font-size="15" id="svg_8" y="60.622218" x="32.277465" stroke-width="0" fill="#a07c2e">every</text>
  <text font-weight="bold" xml:space="preserve" text-anchor="start" font-family="Arvo, sans-serif" font-size="15" id="svg_9" y="71.906771" x="34.592245" stroke-width="0" fill="#a07c2e">day</text>
 </g>
</svg>