<svg width="512" height="512" xmlns="http://www.w3.org/2000/svg">

 <g>
  <title>background</title>
  <rect fill="none" id="canvas_background" height="402" width="582" y="-1" x="-1"/>
 </g>
 <g>
  <title fill="#4c4c4c" stroke="#fff">Layer 1</title>
  <path fill="#4c4c4c" stroke="#fff" id="svg_3" d="m427.15,321.527l-9.68,-2.512c-8.391,32.34 -30.418,59.493 -60.435,74.498l4.472,8.945c32.602,-16.296 56.528,-45.795 65.643,-80.931z"/>
  <rect fill="#4c4c4c" stroke="#fff" id="svg_4" y="438.592" x="39.773" width="412.301" height="10"/>
  <path fill="#4c4c4c" stroke="#fff" id="svg_5" d="m61.349,269.521c0.61,-3.155 1.201,-6.113 1.775,-8.91l27.626,10.164l3.453,-9.385l-28.971,-10.659c3.848,-17.277 6.834,-26.508 9.324,-33.269c2.747,-7.471 8.241,-13.425 15.471,-16.765s15.326,-3.664 22.801,-0.912c7.474,2.747 13.429,8.241 16.769,15.471c3.339,7.229 3.665,15.326 0.918,22.797c-0.354,0.961 -0.875,2.236 -1.543,3.781l-24.287,-8.936l-3.453,9.385l23.566,8.671c-3.68,7.752 -8.733,17.861 -14.478,28.753l-66.292,0l0,10.276c0,2.789 0.083,5.611 0.247,8.387c3.286,55.857 39.079,102.594 88.316,122.271l-92.818,0l0,10l144.914,0l122.473,0l144.914,0l0,-10l-92.832,0c51.851,-20.741 88.576,-71.488 88.576,-130.658l0,-0.803c6.387,-1.023 12.441,-3.518 17.771,-7.359c9.082,-6.547 15.072,-16.236 16.869,-27.285c1.799,-11.052 -0.816,-22.14 -7.361,-31.219c-4.643,-6.444 -10.971,-11.298 -18.09,-14.226c2.516,-3.598 4.116,-7.826 4.517,-12.239c0.226,-2.44 0.093,-4.913 -0.397,-7.36c-2.788,-13.709 -16.211,-22.601 -29.925,-19.816c-2.371,0.482 -4.632,1.291 -6.729,2.389c-0.038,-0.242 -0.064,-0.484 -0.105,-0.727c-2.291,-13.404 -9.663,-25.115 -20.761,-32.974c-22.909,-16.224 -54.745,-10.785 -70.97,12.124c-2.607,3.682 -4.666,7.651 -6.183,11.786c-22.618,-5.498 -45.822,7.82 -52.305,30.39c-2.821,9.81 -2.113,20.349 1.993,29.675l9.152,-4.029c-3.166,-7.189 -3.711,-15.316 -1.535,-22.883c2.485,-8.651 8.19,-15.817 16.064,-20.177c7.416,-4.104 15.919,-5.256 24.115,-3.302c-1.756,11.153 0.173,22.821 5.89,32.974l8.714,-4.906c-7.729,-13.727 -6.844,-30.898 2.256,-43.748c6.314,-8.917 15.725,-14.842 26.496,-16.682c10.77,-1.84 21.614,0.624 30.532,6.94c8.917,6.315 14.843,15.725 16.683,26.496c1.84,10.771 -0.625,21.615 -6.94,30.532l8.161,5.779c5.342,-7.542 8.463,-16.192 9.199,-25.167c2.184,-2.388 5.053,-4.037 8.264,-4.69c8.313,-1.685 16.444,3.701 18.131,11.996c0.298,1.484 0.379,2.984 0.242,4.467c-0.361,3.987 -2.332,7.725 -5.359,10.313c-4.188,-0.528 -8.48,-0.451 -12.742,0.332l1.806,9.836c12.091,-2.222 24.538,2.781 31.714,12.743c10.285,14.269 7.037,34.252 -7.242,44.546c-5.333,3.843 -11.617,5.914 -18.178,5.997l-54.949,0c15.001,-21.899 27.654,-23.056 27.793,-23.065l-0.102,0.004l-0.283,-9.996c-2.039,0.058 -20.069,1.501 -39.301,33.057l-2.493,0c0.177,-1.618 0.292,-3.249 0.318,-4.89c0.22,-14.246 -5.161,-27.68 -15.151,-37.826c-9.993,-10.149 -23.338,-15.738 -37.578,-15.738c-8.902,0 -17.713,2.263 -25.484,6.548c-2.287,1.267 -4.703,2.464 -7.177,3.556c-12.704,5.6 -26.124,7.855 -38.81,6.517c-1.05,-0.11 -2.121,-0.162 -3.2,-0.179c-11.666,-9.75 -24.873,-18.125 -35.125,-24.041c-0.207,-11.178 0.781,-22.445 2.956,-33.505l1.173,-5.965l-6.079,0c-2.805,0 -9.972,0.643 -15.925,6.596c-0.568,0.569 -1.097,1.166 -1.596,1.782c-0.499,-0.616 -1.028,-1.213 -1.596,-1.782c-5.954,-5.954 -13.12,-6.596 -15.925,-6.596l-6.079,0l1.172,5.964c2.175,11.061 3.162,22.327 2.956,33.5c-8.509,4.908 -19.052,11.506 -29.053,19.179c0.958,-7.362 -0.161,-14.86 -3.351,-21.765c-2.262,-4.896 -5.424,-9.192 -9.291,-12.72c2.214,-1.435 4.339,-3.118 6.206,-4.693c7.187,-6.067 15.523,-14.998 23.473,-25.147c7.949,-10.146 14.622,-20.377 18.79,-28.808c3.449,-6.977 7.373,-16.773 1.642,-21.268c-4.668,-3.657 -12.391,-0.604 -23.03,9.068c0.147,-1.354 0.262,-2.677 0.334,-3.955c0.839,-14.938 -3.91,-19.886 -8.042,-21.406c-7.307,-2.688 -15.471,4.152 -22.723,14.995c-1.785,-14.83 -5.724,-22.456 -11.77,-22.702c-7.224,-0.291 -10.635,9.711 -12.53,17.26c-2.291,9.122 -3.84,21.237 -4.363,34.115c-0.524,12.882 0.035,25.087 1.576,34.365c0.411,2.476 0.955,5.217 1.747,7.807c-5.075,0.235 -10.108,1.45 -14.86,3.645c-9.656,4.46 -16.994,12.413 -20.662,22.389c-3.408,9.253 -7.694,22.86 -13.642,53.614l9.818,1.901zm74.306,-18.171c3.734,-3.563 7.827,-7.003 12.058,-10.26c-6.521,10.758 -11.022,23.285 -11.022,36.57c0,0.684 0.025,1.365 0.039,2.048l-15.118,0c5.851,-11.242 10.714,-21.151 14.043,-28.358zm73.993,12.586l-18.305,0l0,10l16.871,0c-0.004,1.946 0.137,3.874 0.438,5.772l-33.693,0c-0.007,-0.683 -0.018,-1.364 -0.018,-2.048c0,-23.114 6.359,-42.402 11.505,-53.146l0,1.44l0.01,0l-0.001,-1.458c1.585,-3.308 3.057,-5.815 4.189,-7.359c3.063,4.017 8.67,14.923 12.36,31.692l9.767,-2.148c-1.939,-8.815 -4.701,-17.331 -7.886,-24.416c7.942,4.581 17.732,10.682 27.013,17.683c-7.458,2.783 -13.921,8.007 -18.253,15.003c-1.746,2.808 -3.081,5.836 -3.997,8.985zm-62.918,15.772c-0.016,-0.683 -0.039,-1.363 -0.039,-2.048c0,-19.793 11.818,-35.992 18.863,-43.886c3.433,-3.847 6.832,-7.016 9.984,-9.567c-0.634,1.505 -1.23,3.01 -1.782,4.476c-3.292,8.744 -8.814,26.734 -8.814,48.977c0,0.684 0.011,1.365 0.018,2.048l-18.23,0zm291.088,10.276c0,72.046 -58.613,130.658 -130.658,130.658l-122.473,0c-69.085,0 -126.376,-53.966 -130.429,-122.859c-0.152,-2.581 -0.229,-5.205 -0.229,-7.799l0,-0.276l383.79,0l0,0.276l-0.001,0zm-142.439,-16.001c0,-13.557 11.033,-24.585 24.596,-24.585c13.557,0 24.586,11.029 24.586,24.585c0,1.947 -0.251,3.858 -0.697,5.725l-47.785,0c-0.449,-1.862 -0.7,-3.773 -0.7,-5.725zm-4.186,-33.475c2.75,-1.214 5.438,-2.546 7.978,-3.954c6.289,-3.467 13.429,-5.3 20.647,-5.3c11.539,0 22.354,4.53 30.453,12.754c8.096,8.222 12.456,19.109 12.277,30.652c-0.027,1.698 -0.165,3.385 -0.389,5.048l-8.08,0c0.313,-1.882 0.48,-3.792 0.48,-5.725c0,-19.07 -15.516,-34.585 -34.586,-34.585c-19.076,0 -34.596,15.515 -34.596,34.585c0,1.935 0.167,3.845 0.481,5.725l-67.029,0c-0.471,-2.116 -0.681,-4.292 -0.615,-6.502c0.136,-4.581 1.492,-9.067 3.926,-12.983c4.599,-7.428 12.474,-12.106 21.065,-12.514c1.389,-0.066 2.765,-0.028 4.091,0.112c14.423,1.517 29.599,-1.01 43.897,-7.313zm-91.975,-52.655c0.844,-0.844 1.739,-1.495 2.627,-1.997c-1.104,7.384 -1.713,14.829 -1.832,22.257c-1.779,-0.942 -3.283,-1.717 -4.462,-2.314l0,-9.092c0,-3.345 1.302,-6.489 3.667,-8.854zm-19.962,-1.997c0.888,0.502 1.783,1.153 2.627,1.997c2.365,2.365 3.667,5.509 3.667,8.854l0,9.091c-1.179,0.596 -2.688,1.374 -4.462,2.313c-0.118,-7.427 -0.727,-14.871 -1.832,-22.255zm-7.42,-57.637c-1.868,5.882 -8.187,18.215 -20.645,34.118c-3.06,3.906 -5.997,7.396 -8.768,10.494c2.425,-4.853 4.638,-10.01 6.542,-15.185c1.521,-4.131 2.826,-8.24 3.934,-12.257c8.759,-9.717 15.262,-14.936 18.937,-17.17zm-26.541,-16.673c2.119,2.02 3.503,17.597 -5.713,42.646c-9.218,25.051 -20.369,36.016 -23.291,36.18c-2.119,-2.02 -3.504,-17.597 5.713,-42.647c9.218,-25.051 20.369,-36.015 23.291,-36.179zm-37.931,34.663c0.819,-20.184 4.002,-33.671 6.391,-39.361c1.39,4.2 3.015,12.729 3.324,26.47l0.055,-0.001c-1.639,3.573 -3.155,7.26 -4.515,10.955c-2.134,5.8 -3.96,11.837 -5.317,17.71c-0.169,-4.702 -0.175,-9.965 0.062,-15.773z"/>
  <rect fill="#4c4c4c" stroke="#fff" id="svg_6" y="226.854" x="80.33" width="14.076" transform="matrix(-0.9385,-0.3453,0.3453,-0.9385,89.3033,479.6154) " height="10"/>
  <path fill="#4c4c4c" stroke="#fff" id="svg_7" d="m450.381,262.348c-3.604,2.595 -8.002,3.63 -12.387,2.919l-1.604,9.87c1.446,0.235 2.894,0.352 4.33,0.352c5.538,0 10.923,-1.727 15.505,-5.025c5.771,-4.156 9.578,-10.312 10.721,-17.332c1.141,-7.02 -0.52,-14.064 -4.675,-19.835l-8.115,5.844c2.596,3.604 3.632,8.003 2.919,12.386c-0.714,4.382 -3.091,8.225 -6.694,10.821z"/>
  <path fill="#4c4c4c" stroke="#fff" id="svg_8" d="m364.225,166.188l2.764,-9.611c-11.462,-3.293 -23.472,3.35 -26.768,14.813c-3.295,11.464 3.351,23.471 14.814,26.767l2.762,-9.611c-6.164,-1.772 -9.736,-8.229 -7.965,-14.393c1.772,-6.164 8.229,-9.737 14.393,-7.965z"/>
  <polygon fill="#4c4c4c" stroke="#fff" id="svg_9" points="189.816,99.758 199.816,99.758 199.816,87.37 212.205,87.37 212.205,77.37 199.816,77.37 199.816,64.981     189.816,64.981 189.816,77.37 177.428,77.37 177.428,87.37 189.816,87.37   "/>
  <polygon fill="#4c4c4c" stroke="#fff" id="svg_10" points="306.871,144.48 316.871,144.48 316.871,132.092 329.26,132.092 329.26,122.092 316.871,122.092 316.871,109.703     306.871,109.703 306.871,122.092 294.482,122.092 294.482,132.092 306.871,132.092   "/>
  <polygon fill="#4c4c4c" stroke="#fff" id="svg_11" points="41.376,186.861 51.376,186.861 51.376,174.473 63.765,174.473 63.765,164.473 51.376,164.473 51.376,152.084     41.376,152.084 41.376,164.473 28.987,164.473 28.987,174.473 41.376,174.473   "/>
 </g>
</svg>