<svg width="512" height="512" xmlns="http://www.w3.org/2000/svg">

 <g>
  <title>background</title>
  <rect fill="none" id="canvas_background" height="402" width="582" y="-1" x="-1"/>
 </g>
 <g>
  <title stroke="#fff" fill="#4c4c4c">Layer 1</title>
  <rect stroke="#fff" fill="#4c4c4c" id="svg_2" y="78.81" x="256.932" width="9.5" height="9.5"/>
  <rect stroke="#fff" fill="#4c4c4c" id="svg_3" y="151.608" x="423.098" width="9.5" height="9.5"/>
  <rect stroke="#fff" fill="#4c4c4c" id="svg_4" y="282.557" x="445.729" width="9.5" height="9.5"/>
  <rect stroke="#fff" fill="#4c4c4c" id="svg_5" y="339.701" x="397.137" width="9.5" height="9.5"/>
  <rect stroke="#fff" fill="#4c4c4c" id="svg_6" y="194.887" x="197.917" width="9.5" height="9.5"/>
  <path stroke="#fff" fill="#4c4c4c" id="svg_7" d="m243.925,131.715l1.746,-9.847c-11.563,-2.049 -22.631,5.688 -24.68,17.247c-2.049,11.559 5.688,22.629 17.247,24.679c1.225,0.217 2.455,0.323 3.676,0.323c6.822,0 13.388,-3.302 17.411,-8.97l-8.155,-5.788c-2.518,3.546 -6.911,5.347 -11.187,4.589c-6.13,-1.087 -10.232,-6.958 -9.146,-13.087s6.951,-10.234 13.088,-9.146z"/>
  <path stroke="#fff" fill="#4c4c4c" id="svg_8" d="m390.834,139.686c-2.66,1.417 -5.717,1.713 -8.6,0.835l-2.916,9.565c2.051,0.625 4.148,0.936 6.234,0.936c3.443,0 6.857,-0.845 9.984,-2.51c5.018,-2.674 8.695,-7.142 10.354,-12.581c1.658,-5.439 1.1,-11.2 -1.574,-16.219c-2.674,-5.019 -7.143,-8.696 -12.582,-10.354c-7.836,-2.389 -16.463,-0.014 -21.973,6.051l7.4,6.726c2.924,-3.218 7.5,-4.478 11.656,-3.211c2.885,0.879 5.254,2.83 6.672,5.491c1.418,2.662 1.715,5.716 0.834,8.601c-0.878,2.882 -2.827,5.252 -5.489,6.67z"/>
  <path stroke="#fff" fill="#4c4c4c" id="svg_9" d="m448.424,246.487c-1.156,-3.492 -3.115,-6.696 -5.797,-9.377c-3.674,-3.674 -8.26,-5.878 -13.035,-6.656l3.533,-3.534c4.529,-4.528 7.018,-10.542 7.006,-16.925c0,-5.575 -1.891,-10.855 -5.365,-15.11c7.834,-6.937 13.742,-15.717 17.238,-25.718c5.439,-15.566 4.496,-32.32 -2.656,-47.174c-7.154,-14.858 -19.668,-26.037 -35.229,-31.475c-11.924,-4.17 -24.654,-4.463 -36.475,-1.278c0.596,-6.758 -0.842,-13.666 -4.238,-19.604c-1.598,-2.806 -3.607,-5.375 -5.984,-7.646c-13.357,-12.7 -34.563,-12.17 -47.273,1.187c-2.877,3.028 -5.125,6.519 -6.682,10.293c-12.57,-14.248 -30.908,-23.304 -51.357,-23.43c-0.146,-0.001 -0.289,-0.001 -0.436,-0.001c-37.882,0 -68.823,30.704 -69.058,68.64c-0.042,6.731 0.917,13.335 2.757,19.633c-10.091,3.587 -18.832,9.702 -25.524,17.741c-14.037,4.611 -26.787,12.747 -36.947,23.618c-17.45,18.664 -41.571,29.368 -66.179,29.368l-47.267,0l0,10l47.268,0c27.366,0 54.15,-11.859 73.484,-32.539c5.995,-6.414 13.004,-11.75 20.685,-15.813c-5.777,13.462 -6.35,28.382 -1.565,42.338c4.465,13.039 13.4,24.154 25.159,31.3l5.193,-8.546c-9.764,-5.933 -17.183,-15.164 -20.893,-25.996c-8.718,-25.425 4.766,-53.183 30.076,-62.103c6.612,14.483 18.133,26.596 32.936,33.709l4.331,-9.014c-20.5,-9.851 -33.655,-30.904 -33.514,-53.636c0.201,-32.445 26.659,-58.702 59.06,-58.702c0.123,0 0.248,0 0.371,0.001c32.568,0.201 58.9,26.861 58.699,59.43l10,0.062c0.08,-13.012 -3.465,-25.216 -9.684,-35.656c0.516,-5.167 2.721,-10.006 6.332,-13.807c8.91,-9.362 23.771,-9.734 33.129,-0.84c1.664,1.591 3.076,3.393 4.197,5.364c3.234,5.652 3.934,12.548 1.975,18.741c-6.213,3.009 -11.969,7.065 -16.957,12.116l7.115,7.026c14,-14.175 35.18,-19.091 53.965,-12.518c13.041,4.557 23.523,13.923 29.52,26.374c5.994,12.449 6.785,26.49 2.227,39.536c-3.121,8.928 -8.535,16.697 -15.752,22.669c-3.254,-1.611 -6.859,-2.469 -10.6,-2.469c-0.002,0 -0.004,0 -0.006,0c-1.025,0 -2.041,0.072 -3.043,0.198c0.125,-1.001 0.197,-2.016 0.197,-3.042c0,-6.396 -2.486,-12.404 -6.998,-16.917c-4.52,-4.52 -10.531,-7.009 -16.926,-7.009c-5.207,0 -10.16,1.652 -14.262,4.707c-0.75,-5.019 -3.078,-9.651 -6.738,-13.313c-9.332,-9.332 -24.518,-9.332 -33.85,0l-49.404,49.404c-1.615,-4.109 -4.066,-7.883 -7.283,-11.099c-5.643,-5.643 -14.824,-5.643 -20.467,0l-24.378,24.378l0,0l-31.895,31.895c-15.798,15.797 -24.425,37.67 -23.668,60.01c0.402,11.865 -1.676,23.508 -5.907,34.172l-12.443,0c-8.719,0 -17.009,-2.756 -23.972,-7.969c-12.683,-9.504 -27.354,-14.527 -42.427,-14.527l-73.283,0l0,10l73.283,0c12.894,0 25.491,4.332 36.432,12.531c8.708,6.52 19.07,9.965 29.967,9.965l7.678,0c-3.52,6.25 -7.845,12.02 -12.928,17.102l-30.476,30.475l7.071,7.072l30.476,-30.477c17.733,-17.732 27.4,-42.768 26.523,-68.684c-0.663,-19.58 6.898,-38.752 20.746,-52.599l13.713,-13.713l0,0l42.559,-42.56c0.846,-0.845 1.969,-1.31 3.164,-1.31c1.193,0 2.318,0.465 3.162,1.31c4.258,4.258 6.604,9.919 6.604,15.94c0,6.022 -2.346,11.683 -6.604,15.941l-31.637,31.637l7.071,7.07l31.636,-31.634c6.148,-6.146 9.533,-14.319 9.533,-23.012c0,-0.007 -0.002,-0.014 -0.002,-0.021l54.227,-54.225c5.434,-5.434 14.275,-5.434 19.707,0c2.637,2.635 4.084,6.132 4.078,9.854c0,3.715 -1.451,7.211 -4.086,9.846l-53.979,53.98l7.07,7.071l65.135,-65.135c5.434,-5.434 14.275,-5.434 19.709,0c2.623,2.624 4.068,6.12 4.068,9.846s-1.449,7.225 -4.078,9.854l0,0l-65.135,65.134l7.07,7.072l65.137,-65.136l0,-0.001l0,0c0.002,-0.001 0.002,-0.002 0.004,-0.003c2.631,-2.629 6.129,-4.078 9.85,-4.079c0.002,0 0.002,0 0.004,0c3.721,0 7.215,1.447 9.842,4.074c2.629,2.628 4.076,6.128 4.076,9.863c0.008,3.713 -1.441,7.209 -4.076,9.845l-17.27,17.27l-47.865,47.866l7.07,7.07l47.865,-47.865c5.436,-5.435 14.271,-5.438 19.701,-0.009c2.635,2.635 4.082,6.132 4.076,9.854c0,3.727 -1.447,7.225 -4.076,9.854l-62.584,62.586l7.07,7.07l62.586,-62.584c3.861,-3.863 6.232,-8.816 6.842,-14.164c12.816,2.752 22.455,14.164 22.455,27.791c0,15.676 -12.754,28.428 -28.428,28.428l-5,0l0,154.068c0,4.674 -3.803,8.477 -8.477,8.477s-8.475,-3.803 -8.475,-8.477l0,-83.467c0,-8.523 -6.934,-15.459 -15.457,-15.459s-15.457,6.936 -15.457,15.459l0,42.609c0,3.01 -2.449,5.457 -5.459,5.457l-1.916,0c-3.01,0 -5.457,-2.447 -5.457,-5.457l0,-66.666l-10,0l0,66.666c0,8.523 6.934,15.457 15.457,15.457l1.916,0c8.523,0 15.459,-6.934 15.459,-15.457l0,-42.609c0,-3.01 2.447,-5.459 5.457,-5.459c3.008,0 5.457,2.449 5.457,5.459l0,83.467c0,10.188 8.287,18.477 18.475,18.477s18.477,-8.289 18.477,-18.477l0,-144.389c18.836,-2.459 33.428,-18.609 33.428,-38.105c0.002,-19.52 -14.631,-35.674 -33.5,-38.101z"/>
  <path stroke="#fff" fill="#4c4c4c" id="svg_10" d="m365.084,334.363l-62.105,62.105c-5.555,5.555 -12.592,9.078 -20.346,10.193c-14.4,2.063 -27.184,8.326 -36.97,18.113l-47.25,47.25l7.071,7.07l47.25,-47.25c8.246,-8.246 19.076,-13.531 31.32,-15.285c9.912,-1.424 18.902,-5.928 25.996,-13.021l62.105,-62.105l-7.071,-7.07z"/>
  <path stroke="#fff" fill="#4c4c4c" id="svg_11" d="m170.736,64.436c10.476,0 18.998,-8.522 18.998,-18.998s-8.522,-18.998 -18.998,-18.998s-18.998,8.522 -18.998,18.998s8.523,18.998 18.998,18.998zm0,-27.996c4.961,0 8.998,4.037 8.998,8.998s-4.037,8.998 -8.998,8.998s-8.998,-4.037 -8.998,-8.998s4.037,-8.998 8.998,-8.998z"/>
  <path stroke="#fff" fill="#4c4c4c" id="svg_12" d="m403.84,73.375c7.693,0 13.951,-6.259 13.951,-13.952c0,-7.693 -6.258,-13.952 -13.951,-13.952s-13.953,6.259 -13.953,13.952c0,7.694 6.259,13.952 13.953,13.952zm0,-17.903c2.18,0 3.951,1.773 3.951,3.952c0,2.179 -1.771,3.952 -3.951,3.952s-3.953,-1.773 -3.953,-3.952c0,-2.179 1.773,-3.952 3.953,-3.952z"/>
  <path stroke="#fff" fill="#4c4c4c" id="svg_13" d="m161.124,140.184c8.057,0 14.612,-6.555 14.612,-14.612s-6.555,-14.612 -14.612,-14.612c-8.058,0 -14.613,6.555 -14.613,14.612s6.555,14.612 14.613,14.612zm0,-19.225c2.543,0 4.612,2.069 4.612,4.612s-2.069,4.612 -4.612,4.612s-4.613,-2.069 -4.613,-4.612s2.07,-4.612 4.613,-4.612z"/>
  <path stroke="#fff" fill="#4c4c4c" id="svg_14" d="m473.547,180.639c-10.477,0 -18.998,8.522 -18.998,18.998s8.521,18.998 18.998,18.998c10.475,0 18.998,-8.522 18.998,-18.998s-8.524,-18.998 -18.998,-18.998zm0,27.996c-4.963,0 -8.998,-4.037 -8.998,-8.998s4.035,-8.998 8.998,-8.998c4.961,0 8.998,4.037 8.998,8.998s-4.037,8.998 -8.998,8.998z"/>
 </g>
</svg>