<svg width="512" height="512" xmlns="http://www.w3.org/2000/svg">

 <g>
  <title>background</title>
  <rect fill="none" id="canvas_background" height="402" width="582" y="-1" x="-1"/>
 </g>
 <g>
  <title fill="#4c4c4c">Layer 1</title>
  <rect fill="#4c4c4c" id="svg_2" y="379.328" x="395.048" width="9.528" height="9.528"/>
  <rect fill="#4c4c4c" id="svg_3" y="206.977" x="443.042" width="9.527" height="9.528"/>
  <rect fill="#4c4c4c" id="svg_4" y="213.625" x="339.733" width="9.527" height="9.527"/>
  <rect fill="#4c4c4c" id="svg_5" y="424.342" x="447.806" width="9.527" height="9.527"/>
  <rect fill="#4c4c4c" id="svg_6" y="433.393" x="360.96" width="9.528" height="9.527"/>
  <path fill="#4c4c4c" id="svg_7" d="m439.856,110.34c-4.482,-2.437 -7.268,-7.118 -7.268,-12.217l0,-14.346c5.443,-0.923 9.607,-5.659 9.607,-11.362l0,-16.499c0,-6.361 -5.176,-11.537 -11.537,-11.537l-79.626,0c-6.361,0 -11.536,5.176 -11.536,11.537l0,16.499c0,5.701 4.16,10.438 9.602,11.361l0,14.347c0,2.498 -0.676,4.954 -1.955,7.101c-1.283,2.153 -3.121,3.924 -5.312,5.115c-30.034,16.319 -48.692,47.691 -48.692,81.874l0,9.764l-209.326,0c-14.491,0 -26.597,10.864 -28.158,25.27l-9.688,89.342l9.941,1.078l9.688,-89.342c1.011,-9.319 8.842,-16.348 18.217,-16.348l218.912,0c9.375,0 17.206,7.028 18.217,16.348l9.68,89.261l9.941,-1.078l-5.521,-50.915l91.973,0l0,83.152l-60.104,0l0,10l70.104,0l0,-126l-105.536,0l-0.596,-5.498c-1.547,-14.268 -13.438,-25.055 -27.744,-25.26l0,-9.773c0,-3.969 0.287,-7.894 0.837,-11.754c10.021,1.129 15.729,5.169 22.165,9.751c7.852,5.59 16.752,11.927 33.801,11.927s25.949,-6.337 33.803,-11.927c7.592,-5.405 14.148,-10.073 28.002,-10.073s20.41,4.668 28.003,10.073c7.042,5.014 14.948,10.612 28.8,11.717l0,236.236c0,10.405 -8.461,18.87 -18.86,18.87l-121.62,0l0,10l121.62,0c15.913,0 28.86,-12.951 28.86,-28.87l0,-245.94c0,-34.191 -18.658,-65.566 -48.694,-81.884zm-12.841,132.404l0,12.848l-93.057,0l-1.394,-12.848l94.451,0zm-77.518,-186.828c0,-0.848 0.689,-1.537 1.536,-1.537l79.626,0c0.848,0 1.537,0.689 1.537,1.537l0,16.499c0,0.848 -0.689,1.537 -1.537,1.537l-79.626,0c-0.847,0 -1.536,-0.689 -1.536,-1.537l0,-16.499zm106.053,126.147c-7.853,-5.591 -16.753,-11.927 -33.803,-11.927c-17.049,0 -25.949,6.336 -33.803,11.927c-7.592,5.405 -14.148,10.073 -28.002,10.073c-13.853,0 -20.41,-4.668 -28.002,-10.073c-6.546,-4.661 -13.838,-9.826 -25.955,-11.42c5.824,-21.718 20.303,-40.479 40.624,-51.52c3.769,-2.051 6.925,-5.088 9.126,-8.782c0.805,-1.353 1.469,-2.777 1.99,-4.25l46.828,0l0,-10l-45.455,0l0,-12.138l63.49,0l0,14.17c0,8.767 4.787,16.814 12.493,21.003c26.72,14.518 43.349,42.385 43.462,72.783c-10.548,-0.991 -16.38,-5.138 -22.993,-9.846z"/>
  <rect fill="#4c4c4c" id="svg_8" y="142.236" x="96.222" width="10" height="15.048"/>
  <rect fill="#4c4c4c" id="svg_9" y="167.96" x="96.222" width="10" height="15.048"/>
  <rect fill="#4c4c4c" id="svg_10" y="157.622" x="80.836" width="15.048" height="10"/>
  <rect fill="#4c4c4c" id="svg_11" y="157.622" x="106.56" width="15.048" height="10"/>
  <rect fill="#4c4c4c" id="svg_12" y="68.112" x="264.374" width="10" height="15.048"/>
  <rect fill="#4c4c4c" id="svg_13" y="93.836" x="264.374" width="10" height="15.048"/>
  <rect fill="#4c4c4c" id="svg_14" y="83.498" x="248.987" width="15.049" height="10"/>
  <rect fill="#4c4c4c" id="svg_15" y="83.498" x="274.712" width="15.047" height="10"/>
  <path fill="#4c4c4c" id="svg_16" d="m346.915,400.563c8.988,-0.117 16.266,-7.456 16.266,-16.472s-7.279,-16.354 -16.269,-16.471c0,-0.028 0.003,-0.057 0.003,-0.085c0,-12.995 -5.178,-27.528 -13.852,-38.874c-9.695,-12.685 -22.098,-19.67 -34.922,-19.67c-3.646,0 -7.256,0.584 -10.781,1.684c-9.27,-18.979 -25.33,-30.996 -41.935,-30.996c-16.521,0 -32.558,11.957 -41.858,30.833c-3.357,-0.994 -6.788,-1.521 -10.252,-1.521c-3.713,0 -7.387,0.604 -10.973,1.742c-9.268,-19.015 -25.337,-31.055 -41.965,-31.055c-16.48,0 -32.495,11.914 -41.794,30.722c-3.242,-0.925 -6.552,-1.409 -9.891,-1.409c-12.827,0 -25.23,6.985 -34.925,19.67c-8.671,11.345 -13.848,25.877 -13.848,38.874c0,0.025 0.002,0.05 0.002,0.075c-9.083,0.006 -16.472,7.396 -16.472,16.48s7.385,16.473 16.466,16.481l0,19.474c0,26.155 21.278,47.434 47.434,47.434c19.654,0 36.554,-12.017 43.741,-29.088l18.562,0c7.153,17.145 24.088,29.229 43.795,29.229c19.708,0 36.642,-12.084 43.796,-29.229l18.495,0c6.354,15.092 20.301,26.225 37.029,28.605l0,0.031c0.066,0 0.133,-0.006 0.199,-0.006c2.131,0.293 4.303,0.457 6.513,0.457c26.155,0 47.435,-21.278 47.435,-47.434l0,-19.481l0.001,0zm-48.773,-81.571c20.882,0 38.773,26.692 38.773,48.544c0,0.024 -0.002,0.05 -0.002,0.075l-77.541,0c0,-0.025 -0.002,-0.051 -0.002,-0.075c0,-21.851 17.891,-48.544 38.772,-48.544zm-52.716,-29.312c14.212,0 26.247,12.055 32.819,25.148c-5.439,3.304 -10.527,7.945 -15.027,13.834c-8.672,11.345 -13.849,25.877 -13.849,38.874c0,0.024 0.002,0.05 0.003,0.075l-7.286,0c0,-0.025 0.002,-0.051 0.002,-0.075c0,-12.995 -5.178,-27.528 -13.851,-38.874c-4.629,-6.057 -9.879,-10.796 -15.493,-14.113c6.605,-12.961 18.597,-24.869 32.682,-24.869zm-52.111,29.312c20.882,0 38.772,26.692 38.772,48.544c0,0.024 -0.002,0.05 -0.002,0.075l-77.541,0c0,-0.025 -0.002,-0.051 -0.002,-0.075c0.001,-21.851 17.893,-48.544 38.773,-48.544zm-52.937,-29.312c14.251,0 26.306,12.108 32.872,25.25c-5.376,3.297 -10.405,7.904 -14.859,13.732c-8.671,11.345 -13.848,25.877 -13.848,38.874c0,0.024 0.002,0.05 0.002,0.075l-7.081,0c0,-0.025 0.002,-0.051 0.002,-0.075c0,-12.995 -5.178,-27.528 -13.852,-38.874c-4.717,-6.171 -10.076,-10.98 -15.811,-14.305c6.61,-12.871 18.561,-24.677 32.575,-24.677zm-51.685,29.312c20.881,0 38.772,26.692 38.772,48.544c0,0.024 -0.002,0.05 -0.002,0.075l-77.54,0c0,-0.025 -0.002,-0.051 -0.002,-0.075c0,-21.851 17.891,-48.544 38.772,-48.544zm-38.776,101.055l0,-19.473l6.266,0l0,19.307c0,11.366 3.205,21.805 8.534,29.956c-8.987,-6.845 -14.8,-17.649 -14.8,-29.79zm84.118,8.346c0.483,-2.711 0.75,-5.497 0.75,-8.346l0,-2.482c0,-3.078 2.504,-5.582 5.647,-5.582c3.078,0 5.582,2.504 5.582,5.582l0,2.622c0,2.8 0.258,5.538 0.725,8.206l-12.704,0zm106.122,0c0.468,-2.668 0.726,-5.406 0.726,-8.206l0,-2.622c0,-3.078 2.504,-5.582 5.581,-5.582c3.078,0 5.582,2.504 5.582,5.582l0,2.482c0,2.849 0.267,5.635 0.75,8.346l-12.639,0zm79.985,-8.512c0,20.137 -11.869,36.57 -26.61,37.122c-17.823,-2.858 -31.485,-18.34 -31.485,-36.956l0,-2.482c0,-8.592 -6.99,-15.582 -15.582,-15.582s-15.581,6.99 -15.581,15.582l0,2.622c0,20.642 -16.793,37.435 -37.435,37.435c-20.641,0 -37.434,-16.793 -37.434,-37.435l0,-2.622c0,-8.592 -6.99,-15.582 -15.648,-15.582c-8.591,0 -15.581,6.99 -15.581,15.582l0,2.482c0,18.645 -13.703,34.146 -31.567,36.971c-14.938,-0.248 -27.035,-16.807 -27.035,-37.137l0,-19.307l253.959,0l0,19.307l-0.001,0zm16.773,0.166c0,12.591 -6.256,23.742 -15.814,30.531c5.628,-8.256 9.041,-18.979 9.041,-30.697l0,-19.307l6.773,0l0,19.473zm-296.982,-29.473c-3.574,0 -6.481,-2.908 -6.481,-6.482c0,-3.573 2.907,-6.48 6.481,-6.48l306.766,0c3.574,0 6.482,2.907 6.482,6.48c0,3.574 -2.908,6.482 -6.482,6.482l-306.766,0z"/>
  <path fill="#4c4c4c" id="svg_17" d="m101.784,233.032c0,-7.22 -5.873,-13.094 -13.093,-13.094s-13.094,5.874 -13.094,13.094s5.874,13.094 13.094,13.094s13.093,-5.874 13.093,-13.094zm-16.186,0c0,-1.706 1.388,-3.094 3.094,-3.094c1.705,0 3.093,1.388 3.093,3.094s-1.388,3.094 -3.093,3.094c-1.707,0 -3.094,-1.388 -3.094,-3.094z"/>
  <path fill="#4c4c4c" id="svg_18" d="m298.14,246.126c7.221,0 13.094,-5.874 13.094,-13.094s-5.873,-13.094 -13.094,-13.094c-7.219,0 -13.094,5.874 -13.094,13.094s5.875,13.094 13.094,13.094zm0,-16.188c1.706,0 3.094,1.388 3.094,3.094s-1.388,3.094 -3.094,3.094c-1.705,0 -3.094,-1.388 -3.094,-3.094s1.389,-3.094 3.094,-3.094z"/>
  <rect fill="#4c4c4c" id="svg_19" y="228.567" x="253.554" width="19.545" height="10"/>
  <rect fill="#4c4c4c" id="svg_20" y="228.567" x="114.438" width="127.441" height="10"/>
  <rect fill="#4c4c4c" id="svg_21" y="373.847" x="454.356" width="10" height="15.671"/>
  <rect fill="#4c4c4c" id="svg_22" y="232.321" x="454.356" width="10" height="127.234"/>
 </g>
</svg>